<svg width="32" height="32" viewBox="0 0 32 32" fill="none" xmlns="http://www.w3.org/2000/svg">
<path fill-rule="evenodd" clip-rule="evenodd" d="M25.6 1.6H6.4C3.74903 1.6 1.6 3.74903 1.6 6.4V25.6C1.6 28.251 3.74903 30.4 6.4 30.4H25.6C28.251 30.4 30.4 28.251 30.4 25.6V6.4C30.4 3.74903 28.251 1.6 25.6 1.6ZM6.4 0C2.86538 0 0 2.86538 0 6.4V25.6C0 29.1346 2.86538 32 6.4 32H25.6C29.1346 32 32 29.1346 32 25.6V6.4C32 2.86538 29.1346 0 25.6 0H6.4Z" fill="#101010" fill-opacity="0.8"/>
<g clip-path="url(#clip0_1_3158)">
<path d="M16.0001 7.47437C18.7787 7.47437 19.1048 7.48676 20.203 7.5363C21.2187 7.58171 21.7678 7.75099 22.1352 7.89549C22.6224 8.08541 22.9692 8.30835 23.3325 8.67167C23.6959 9.03499 23.9229 9.38179 24.1087 9.86897C24.2491 10.2364 24.4225 10.7855 24.4679 11.8012C24.5175 12.8994 24.5299 13.2255 24.5299 16.0041C24.5299 18.7827 24.5175 19.1088 24.4679 20.207C24.4225 21.2227 24.2532 21.7718 24.1087 22.1392C23.9188 22.6264 23.6959 22.9732 23.3325 23.3365C22.9692 23.6999 22.6224 23.9269 22.1352 24.1127C21.7678 24.2531 21.2187 24.4265 20.203 24.4719C19.1048 24.5215 18.7787 24.5338 16.0001 24.5338C13.2215 24.5338 12.8954 24.5215 11.7972 24.4719C10.7815 24.4265 10.2324 24.2572 9.86497 24.1127C9.37779 23.9228 9.03099 23.6999 8.66767 23.3365C8.30435 22.9732 8.07727 22.6264 7.89149 22.1392C7.75111 21.7718 7.57771 21.2227 7.53229 20.207C7.48275 19.1088 7.47037 18.7827 7.47037 16.0041C7.47037 13.2255 7.48275 12.8994 7.53229 11.8012C7.57771 10.7855 7.74698 10.2364 7.89149 9.86897C8.0814 9.38179 8.30435 9.03499 8.66767 8.67167C9.03099 8.30835 9.37779 8.08128 9.86497 7.89549C10.2324 7.75512 10.7815 7.58171 11.7972 7.5363C12.8954 7.48263 13.2257 7.47437 16.0001 7.47437ZM16.0001 5.59998C13.1761 5.59998 12.8211 5.61236 11.7105 5.6619C10.604 5.71145 9.84845 5.88898 9.18787 6.14495C8.50252 6.40919 7.92451 6.76838 7.34651 7.34638C6.7685 7.92439 6.41344 8.50653 6.14508 9.18775C5.8891 9.84833 5.71157 10.6039 5.66203 11.7145C5.61248 12.8209 5.6001 13.176 5.6001 16C5.6001 18.824 5.61248 19.179 5.66203 20.2896C5.71157 21.3961 5.8891 22.1516 6.14508 22.8163C6.40931 23.5017 6.7685 24.0797 7.34651 24.6577C7.92451 25.2357 8.50665 25.5908 9.18787 25.8591C9.84845 26.1151 10.604 26.2926 11.7146 26.3422C12.8252 26.3917 13.1761 26.4041 16.0042 26.4041C18.8323 26.4041 19.1833 26.3917 20.2939 26.3422C21.4004 26.2926 22.1559 26.1151 22.8206 25.8591C23.506 25.5949 24.084 25.2357 24.662 24.6577C25.24 24.0797 25.595 23.4976 25.8634 22.8163C26.1194 22.1558 26.2969 21.4002 26.3464 20.2896C26.396 19.179 26.4084 18.8281 26.4084 16C26.4084 13.1719 26.396 12.8209 26.3464 11.7103C26.2969 10.6039 26.1194 9.84833 25.8634 9.18362C25.5992 8.49827 25.24 7.92026 24.662 7.34225C24.084 6.76425 23.5018 6.40919 22.8206 6.14083C22.16 5.88485 21.4045 5.70732 20.2939 5.65778C19.1791 5.61236 18.8241 5.59998 16.0001 5.59998Z" fill="#101010" fill-opacity="0.8"/>
<path d="M16.0002 10.6616C13.0523 10.6616 10.6577 13.052 10.6577 16.004C10.6577 18.956 13.0482 21.3464 16.0002 21.3464C18.9521 21.3464 21.3426 18.956 21.3426 16.004C21.3426 13.052 18.9521 10.6616 16.0002 10.6616ZM16.0002 19.4679C14.0845 19.4679 12.5321 17.9155 12.5321 15.9999C12.5321 14.0842 14.0845 12.5318 16.0002 12.5318C17.9158 12.5318 19.4682 14.0842 19.4682 15.9999C19.4682 17.9155 17.9158 19.4679 16.0002 19.4679Z" fill="#101010" fill-opacity="0.8"/>
<path d="M21.553 11.6938C22.2416 11.6938 22.7998 11.1356 22.7998 10.447C22.7998 9.75837 22.2416 9.20013 21.553 9.20013C20.8644 9.20013 20.3062 9.75837 20.3062 10.447C20.3062 11.1356 20.8644 11.6938 21.553 11.6938Z" fill="#101010" fill-opacity="0.8"/>
</g>
<defs>
<clipPath id="clip0_1_3158">
<rect width="20.8" height="20.8" fill="white" transform="translate(5.6001 5.59998)"/>
</clipPath>
</defs>
</svg>
