<svg width="32" height="32" viewBox="0 0 32 32" fill="none" xmlns="http://www.w3.org/2000/svg">
<path d="M25.5857 11.8371C25.3592 10.9876 24.6937 10.3221 23.8583 10.0956C22.3291 9.68494 16.2265 9.68494 16.2265 9.68494C16.2265 9.68494 10.1096 9.68494 8.5946 10.0956C7.7592 10.3221 7.09371 10.9876 6.86716 11.8371C6.45654 13.3664 6.45654 16.5664 6.45654 16.5664C6.45654 16.5664 6.45654 19.7664 6.86716 21.2956C7.09371 22.1451 7.7592 22.8106 8.5946 23.0372C10.1238 23.4478 16.2265 23.4478 16.2265 23.4478C16.2265 23.4478 22.3433 23.4478 23.8583 23.0372C24.6937 22.8106 25.3592 22.1451 25.5857 21.2956C25.9964 19.7664 25.9964 16.5664 25.9964 16.5664C25.9964 16.5664 25.9964 13.3664 25.5857 11.8371ZM14.23 19.469V13.6637L19.3415 16.5664L14.23 19.469Z" fill="#101010" fill-opacity="0.8"/>
<path fill-rule="evenodd" clip-rule="evenodd" d="M27.1575 1.61416H4.84248C3.05952 1.61416 1.61416 3.05952 1.61416 4.84247V27.1575C1.61416 28.9405 3.05952 30.3858 4.84247 30.3858H27.1575C28.9405 30.3858 30.3858 28.9405 30.3858 27.1575V4.84248C30.3858 3.05952 28.9405 1.61416 27.1575 1.61416ZM4.84248 0H27.1575C29.832 0 32 2.16805 32 4.84248V27.1575C32 29.832 29.8319 32 27.1575 32H4.84247C2.16805 32 0 29.8319 0 27.1575V4.84247C0 2.16805 2.16805 0 4.84248 0Z" fill="#101010" fill-opacity="0.8"/>
</svg>
