<svg xmlns="http://www.w3.org/2000/svg" xmlns:xlink="http://www.w3.org/1999/xlink" viewBox="0,0,256,256" width="96px" height="96px" fill-rule="nonzero"><g fill="#101010" fill-rule="nonzero" stroke="none" stroke-width="1" stroke-linecap="butt" stroke-linejoin="miter" stroke-miterlimit="10" stroke-dasharray="" stroke-dashoffset="0" font-family="none" font-weight="none" font-size="none" text-anchor="none" style="mix-blend-mode: normal"><g transform="scale(10.66667,10.66667)"><path d="M18,2c-1.64501,0 -3,1.35499 -3,3c0,0.19095 0.02179,0.37712 0.05664,0.55859l-7.13477,4.16211c-0.52334,-0.44285 -1.1898,-0.7207 -1.92187,-0.7207c-1.64501,0 -3,1.35499 -3,3c0,1.64501 1.35499,3 3,3c0.73208,0 1.39854,-0.27785 1.92188,-0.7207l7.13477,4.16016c-0.03509,0.18206 -0.05664,0.36893 -0.05664,0.56055c0,1.64501 1.35499,3 3,3c1.64501,0 3,-1.35499 3,-3c0,-1.64501 -1.35499,-3 -3,-3c-0.73252,0 -1.39841,0.27933 -1.92187,0.72266l-7.13477,-4.16406c0.03485,-0.18147 0.05664,-0.36764 0.05664,-0.55859c0,-0.19095 -0.02179,-0.37712 -0.05664,-0.55859l7.13477,-4.16211c0.52333,0.44285 1.1898,0.7207 1.92188,0.7207c1.64501,0 3,-1.35499 3,-3c0,-1.64501 -1.35499,-3 -3,-3zM18,4c0.56413,0 1,0.43587 1,1c0,0.56413 -0.43587,1 -1,1c-0.56413,0 -1,-0.43587 -1,-1c0,-0.56413 0.43587,-1 1,-1zM6,11c0.56413,0 1,0.43587 1,1c0,0.56413 -0.43587,1 -1,1c-0.56413,0 -1,-0.43587 -1,-1c0,-0.56413 0.43587,-1 1,-1zM18,18c0.56413,0 1,0.43587 1,1c0,0.56413 -0.43587,1 -1,1c-0.56413,0 -1,-0.43587 -1,-1c0,-0.56413 0.43587,-1 1,-1z"></path></g></g></svg>